# xmcd
#
# Track frame offsets:
#	150
#	24235
#	40017
#	57863
#	76600
#
# Disc length: 1241 seconds
#
# Revision: 0
# Processed by: cddbd v1.5.2PL0 Copyright (c) Steve Scherf et al.
# Submitted via: EasyCDDAExtractor 15.3.0.1
#
DISCID=2804d705
DTITLE=B.P. King and his Blues Boys - Blues U Can Use
DYEAR=1900
DGENRE=Blues
TTITLE0=Dangeous Mood
TTITLE1=I'm Ready
TTITLE2=I ain't drunk (I'm just drinking)
TTITLE3=Boom, Boom, Boom
TTITLE4=If you love me like you say
EXTD=
EXTT0=
EXTT1=
EXTT2=
EXTT3=
EXTT4=
PLAYORDER=
